<svg xmlns="http://www.w3.org/2000/svg" viewBox="0 0 512 512" width="100%" height="100%">
  <defs>
    <!-- Background Gradient -->
    <radialGradient id="bgGrad" cx="50%" cy="50%" r="70%">
      <stop offset="0%" stop-color="#151825" />
      <stop offset="100%" stop-color="#07080c" />
    </radialGradient>
    
    <!-- Primary Cyber Lime Gradient (Lime to Emerald to Cyan) -->
    <linearGradient id="neonGrad" x1="0%" y1="0%" x2="100%" y2="100%">
      <stop offset="0%" stop-color="#a3e635" />
      <stop offset="50%" stop-color="#10b981" />
      <stop offset="100%" stop-color="#06b6d4" />
    </linearGradient>

    <!-- Accent Emerald-Lime Gradient -->
    <linearGradient id="limeGrad" x1="0%" y1="100%" x2="100%" y2="0%">
      <stop offset="0%" stop-color="#06b6d4" />
      <stop offset="100%" stop-color="#a3e635" />
    </linearGradient>
    
    <!-- Drop Shadow Filter -->
    <filter id="glow" x="-20%" y="-20%" width="140%" height="140%">
      <feGaussianBlur stdDeviation="12" result="blur" />
      <feComposite in="SourceGraphic" in2="blur" operator="over" />
    </filter>
  </defs>

  <!-- Dark Rounded Container -->
  <rect width="512" height="512" rx="128" fill="url(#bgGrad)" stroke="#a3e635" stroke-width="6" stroke-opacity="0.3"/>

  <g transform="translate(40, 40)" filter="url(#glow)">
    <!-- Pixelated/Grid Background Pattern in Center -->
    <g opacity="0.12">
      <rect x="60" y="60" width="40" height="40" fill="#fff" rx="4" />
      <rect x="120" y="60" width="40" height="40" fill="#fff" rx="4" />
      <rect x="180" y="60" width="40" height="40" fill="#fff" rx="4" />
      <rect x="240" y="60" width="40" height="40" fill="#fff" rx="4" />
      <rect x="300" y="60" width="40" height="40" fill="#fff" rx="4" />
      
      <rect x="60" y="120" width="40" height="40" fill="#fff" rx="4" />
      <rect x="300" y="120" width="40" height="40" fill="#fff" rx="4" />
      
      <rect x="60" y="180" width="40" height="40" fill="#fff" rx="4" />
      <rect x="300" y="180" width="40" height="40" fill="#fff" rx="4" />
      
      <rect x="60" y="240" width="40" height="40" fill="#fff" rx="4" />
      <rect x="300" y="240" width="40" height="40" fill="#fff" rx="4" />
      
      <rect x="60" y="300" width="40" height="40" fill="#fff" rx="4" />
      <rect x="120" y="300" width="40" height="40" fill="#fff" rx="4" />
      <rect x="180" y="300" width="40" height="40" fill="#fff" rx="4" />
      <rect x="240" y="300" width="40" height="40" fill="#fff" rx="4" />
      <rect x="300" y="300" width="40" height="40" fill="#fff" rx="4" />
    </g>
    
    <!-- Stylized "cg" pixelated emblem -->
    <!-- 'c' part -->
    <path d="M 180 120 L 120 120 L 120 280 L 180 280 M 120 200 L 180 200" fill="none" stroke="url(#neonGrad)" stroke-width="36" stroke-linecap="square" stroke-linejoin="miter"/>
    
    <!-- 'g' part -->
    <path d="M 240 120 L 300 120 L 300 280 L 240 280 L 240 200 L 300 200" fill="none" stroke="url(#limeGrad)" stroke-width="36" stroke-linecap="square" stroke-linejoin="miter"/>
    
    <!-- Tiny digital/pixel accent dots -->
    <rect x="102" y="102" width="36" height="36" fill="#fff" opacity="0.9" rx="2" />
    <rect x="274" y="262" width="36" height="36" fill="#fff" opacity="0.9" rx="2" />
  </g>
</svg>
